<?xml version="1.0" standalone="no"?>
<!DOCTYPE svg PUBLIC "-//W3C//DTD SVG 20010904//EN"
 "http://www.w3.org/TR/2001/REC-SVG-20010904/DTD/svg10.dtd">
<svg version="1.0" xmlns="http://www.w3.org/2000/svg"
 width="300.000000pt" height="46.000000pt" viewBox="0 0 300.000000 46.000000"
 preserveAspectRatio="xMidYMid meet">

<g transform="translate(0.000000,46.000000) scale(0.100000,-0.100000)"
fill="#000000" stroke="none">
<path d="M1584 436 c-141 -65 -179 -244 -76 -358 48 -53 102 -78 172 -78 70 0
126 26 171 79 63 72 75 161 35 246 -28 60 -56 87 -116 114 -60 27 -123 26
-186 -3z m257 -100 c3 -3 3 -23 1 -45 -4 -44 -22 -57 -22 -17 0 36 -26 56 -70
56 -45 0 -47 -2 -51 -55 -3 -34 -1 -40 16 -40 13 0 25 12 35 32 14 31 38 48
27 20 -3 -8 -8 -39 -12 -70 -8 -60 -25 -78 -25 -27 0 25 -4 30 -24 30 -19 0
-24 -6 -30 -37 -9 -58 -8 -61 22 -66 15 -2 -11 -5 -58 -6 -94 -1 -130 13 -130
52 0 28 9 41 38 56 22 12 22 14 8 30 -9 10 -16 24 -16 33 0 16 25 42 50 51 18
7 235 9 241 3z"/>
<path d="M1606 314 c-26 -25 -20 -63 10 -75 15 -5 28 -8 29 -7 2 2 6 24 10 51
7 43 6 47 -13 47 -11 0 -28 -7 -36 -16z"/>
<path d="M1570 201 c-22 -43 -5 -81 37 -81 23 0 26 6 36 73 4 25 2 27 -29 27
-23 0 -37 -6 -44 -19z"/>
<path d="M12 333 c16 -4 18 -18 18 -108 0 -90 -2 -104 -18 -108 -9 -3 23 -5
71 -6 90 -1 140 12 165 42 20 23 0 53 -44 67 l-37 13 32 13 c27 11 32 18 29
41 -4 37 -48 52 -153 51 -44 0 -72 -2 -63 -5z m152 -19 c35 -34 13 -71 -48
-81 l-36 -6 0 52 0 51 34 0 c19 0 42 -7 50 -16z m31 -128 c8 -24 6 -31 -14
-47 -14 -11 -39 -19 -62 -19 l-39 0 0 51 0 50 52 -3 c48 -3 54 -6 63 -32z"/>
<path d="M368 333 c17 -7 17 -209 0 -216 -7 -3 40 -6 105 -6 l117 -1 0 45 c0
25 -3 45 -7 45 -5 0 -16 -18 -25 -40 -16 -40 -17 -40 -73 -40 l-56 0 3 102 c3
99 4 102 28 109 16 5 2 7 -40 7 -36 0 -59 -2 -52 -5z"/>
<path d="M693 333 c15 -4 17 -17 17 -99 0 -86 2 -95 23 -108 53 -33 156 -25
177 14 5 10 10 57 10 104 0 58 4 86 13 89 6 3 -8 5 -33 5 -25 0 -35 -3 -22 -5
22 -4 23 -7 20 -101 l-3 -96 -37 -14 c-30 -12 -41 -12 -65 0 -28 13 -28 15
-31 110 -2 86 -1 97 15 101 10 3 -9 5 -42 5 -33 0 -52 -2 -42 -5z"/>
<path d="M1083 329 c14 -8 17 -25 17 -109 0 -85 -2 -99 -17 -103 -10 -3 35 -5
100 -6 l117 -1 0 34 c0 19 3 41 6 50 3 9 1 16 -5 16 -6 0 -11 -8 -11 -19 0
-10 -9 -30 -21 -45 -17 -22 -28 -26 -70 -26 l-49 0 0 50 c0 47 2 50 25 50 20
0 27 -6 32 -30 10 -54 23 -32 23 41 0 44 -4 68 -10 64 -5 -3 -10 -14 -10 -24
0 -22 -19 -41 -42 -41 -15 0 -18 9 -18 50 l0 50 43 0 c49 0 68 -12 91 -55 l15
-30 1 48 0 47 -117 0 c-85 -1 -113 -3 -100 -11z"/>
<path d="M2053 329 c14 -8 17 -25 17 -104 0 -79 -3 -96 -17 -104 -13 -8 0 -10
52 -9 39 1 55 3 38 5 -32 4 -33 5 -33 54 0 48 1 49 30 49 26 0 31 -5 37 -30
10 -54 23 -31 23 42 0 43 -4 68 -9 63 -5 -6 -11 -19 -13 -29 -4 -24 -31 -41
-52 -33 -13 5 -16 17 -14 49 3 41 5 43 37 46 57 6 81 -6 99 -46 l17 -37 3 33
c6 61 4 62 -120 62 -82 -1 -108 -3 -95 -11z"/>
<path d="M2413 329 c14 -8 17 -25 17 -109 0 -85 -2 -99 -17 -103 -10 -3 35 -5
100 -6 l117 -1 0 47 c0 51 -4 51 -28 1 -16 -30 -21 -33 -69 -36 l-53 -3 0 105
c0 101 1 105 23 109 12 2 -7 5 -43 5 -49 1 -61 -1 -47 -9z"/>
<path d="M2735 331 c11 -5 37 -33 58 -63 30 -44 37 -64 37 -100 0 -36 -4 -48
-17 -51 -10 -3 11 -5 47 -4 36 0 55 2 43 4 -20 4 -23 11 -23 50 0 39 7 55 42
101 23 30 51 58 63 62 14 6 8 8 -25 8 -26 -1 -37 -3 -27 -7 16 -6 14 -12 -19
-54 l-36 -47 -34 45 c-39 51 -40 52 -16 58 9 3 -12 5 -48 5 -43 1 -58 -2 -45
-7z"/>
</g>
</svg>
